<svg width="315" height="386" fill="none" xmlns="http://www.w3.org/2000/svg"><g clip-path="url(#clip0)"><path d="M302.9 0H0v170.37c0 89.47 101.85 180.77 151.17 211l6.12 3.74 6.17-3.74c49.33-30.18 151.18-121.46 151.18-210.95L314.61 0H302.9z" fill="#fff"/><path d="M302.9 11.71H11.72v158.66c0 84.16 100 173.09 145.57 201v.05-.05C202.93 343.46 303 254.53 303 170.37l-.1-158.66z" fill="#011F5B"/><path d="M26.29 118.21v52.16c0 69.63 81.47 150.39 131.06 183.63 49.58-33.27 131.06-114 131.06-183.66v-52.13c-23.65.12-238.48.12-262.12 0z" fill="#fff"/><path d="M166.48 168.23H180a21.907 21.907 0 015.78.43l19.92-27.91c-7.69-2.85-14.8-3.25-25.25-3.25H109.6s.17 21.21 0 21c7.79 0 19.71 3.53 19.71 15.12v74.82l37.38-52.55-.21-27.7" fill="#980000"/><path d="M193.74 173.91L217.43 145c10 8.48 13.72 20.91 13.72 33.41 0 30.273-17.92 45.413-53.76 45.42h-11v30.97c0 10.49 5.8 17.83 20.87 17.83v20.24H109.6s-.08-20.16 0-20.24c12.63 0 19.7-8.58 19.71-20.24L170 202.88h5.37c10.13 0 19.94-3.82 19.94-19.66a28.646 28.646 0 00-1.53-9.31" fill="#011F5B"/><path d="M60.14 65.92l-.08 8.61c0 3.56 1.9 5.63 7.91 5.63v7.66H36.16s.09-7.66.16-7.66c5 0 7.84-2.45 7.92-6.49v-28c.08-4-4.28-5.07-7.29-5.07v-8h30.87c12.1 0 20.65 4.58 20.49 15.58-.16 10.36-7.92 17.73-22.24 17.73l-5.93.01zm0-10.13h3.48c3.72 0 7.36-1.26 7.43-6.49.07-5.23-3.16-6.81-5.93-6.81h-5.06l.08 13.3zM130.4 46.13s.32-5.77-6.41-5.77h-7.27v14.87h3.87c3.88 0 3.88-3.87 3.88-3.87h6.72v15.11h-6.72s-.4-3.8-4-3.8h-3.71v16.85h7.43c3.47 0 6.49-1.66 6.57-6.72h10.91v15l-49 .09v-7.73c3.64 0 8.39-1.59 8.39-6.49l-.08-28.09c0-4.12-5.86-4.91-7.52-4.91 0-4.19-.08-8.06-.08-8.06h48.34v13.52H130.4zM193.7 63V48.11c0-4.67-1.66-7.52-8.31-7.52v-8.07h28.17v8c-5.23 0-7.68.31-7.68 6.81 0 7.2.08 40.49.08 40.49h-14.08l-19.47-26.26s-.08 8.62-.08 11c0 5.16 2.69 7.45 8.39 7.45 0 3.48-.08 7.82-.08 7.82h-27.77v-7.6c5.38 0 7.76-2.92 7.76-7.68V45.74c0-4-3.09-5.22-7.2-5.22v-8h18.36L193.7 63zM261.19 63V48.11c0-4.67-1.66-7.52-8.31-7.52v-8.07h28.17v8c-5.22 0-7.68.31-7.68 6.81 0 7.2.08 40.49.08 40.49h-14.08L239.9 61.56s-.08 8.62-.08 11c0 5.16 2.69 7.45 8.4 7.45 0 3.48-.09 7.82-.09 7.82h-27.77v-7.6c5.38 0 7.76-2.92 7.76-7.68V45.74c0-4-3.09-5.22-7.2-5.22v-8h18.35L261.19 63z" fill="#fff"/></g><defs><clipPath id="clip0"><path fill="#fff" d="M0 0h314.67v385.06H0z"/></clipPath></defs></svg>